# xmcd
#
# Track frame offsets: 
#        150
#        17655
#        37948
#        53017
#        68663
#        86326
#        103694
#        121760
#        137155
#        154572
#        172095
#
# Disc length: 2536 seconds
#
# Revision: 0
# Processed by: cddbd v1.5.2PL0 Copyright (c) Steve Scherf et al.
# Submitted via: ExactAudioCopy v0.99pb3
#
DISCID=8009e60b
DTITLE=Heidi Talbot - The Last Star
DYEAR=2010
DGENRE=Celtic
TTITLE0=Willie Taylor
TTITLE1=Tell Me Truly
TTITLE2=Hang Me
TTITLE3=The Shepherd Lad
TTITLE4=The Last Star
TTITLE5=Sally Brown
TTITLE6=Bantry Girls
TTITLE7=Bleecker Street
TTITLE8=Start It All Over Again
TTITLE9=Cherokee Rose
TTITLE10=At the End of the Day
EXTD=
EXTT0=
EXTT1=
EXTT2=
EXTT3=
EXTT4=
EXTT5=
EXTT6=
EXTT7=
EXTT8=
EXTT9=
EXTT10=
PLAYORDER=
